<svg width="714" height="200" viewBox="0 0 714 200" fill="none" xmlns="http://www.w3.org/2000/svg">
<g clip-path="url(#clip0_451_647)">
<path d="M88.6965 136.607L0.365479 88.4966V114.041L88.6965 162.152L177.028 114.041V88.4966L88.6965 136.607Z" fill="#8247FF"/>
<path d="M88.6965 98.7585L0.365479 50.6482V76.193L88.6965 124.359L177.028 76.193V50.6482L88.6965 98.7585Z" fill="#8247FF"/>
<path d="M0.365479 151.834V126.29L88.6965 174.455L177.028 126.29V151.834L88.6965 200L0.365479 151.834Z" fill="#8247FF"/>
<path d="M88.6413 25.5448L110.931 12.8L88.6413 0L0.365479 50.6483L23.2069 63.1172L88.6413 25.5448Z" fill="#8247FF"/>
<path d="M88.6413 76.3035L66.3517 63.5035L132.834 25.4346V50.9794L88.6413 76.3035Z" fill="#8247FF"/>
<path d="M177.028 50.6484L132.834 25.3242V50.869L154.131 63.1173L177.028 50.6484Z" fill="#8247FF"/>
<path d="M578.959 35.6966C569.138 35.6966 560.09 39.1173 552.917 44.7449V8.71729H536.752V120.166H552.917V111.117C560.09 116.745 569.138 120.166 578.959 120.166C602.241 120.166 621.165 101.241 621.165 77.9587C621.165 54.6759 602.241 35.7518 578.959 35.7518V35.6966ZM578.959 103.945C564.614 103.945 552.917 92.2483 552.917 77.9035C552.917 63.5587 564.614 51.8621 578.959 51.8621C593.303 51.8621 605 63.5587 605 77.9035C605 92.2483 593.303 103.945 578.959 103.945Z" fill="black"/>
<path d="M318.545 121.655C318.545 136 306.848 147.697 292.503 147.697C278.159 147.697 266.462 136 266.462 121.655V120.11H250.297V121.655C250.297 144.938 269.221 163.862 292.503 163.862C315.786 163.862 334.71 144.938 334.71 121.655V120.11H318.545V121.655Z" fill="black"/>
<path d="M713.634 77.9586C713.634 73.8207 713.028 69.7931 711.869 65.9862L711.703 65.5448C711.703 65.5448 711.538 65.0483 711.428 64.8276L711.152 63.9448C711.152 63.9448 711.041 63.6689 710.986 63.5586C709.993 60.8551 708.724 58.262 707.234 55.8345C707.069 55.5586 706.903 55.2276 706.683 54.9517C706.297 54.3448 705.855 53.7931 705.469 53.1862C705.138 52.7448 704.862 52.3586 704.531 51.9172C704.145 51.3655 703.703 50.8689 703.262 50.3724C702.876 49.931 702.49 49.5448 702.103 49.1034C701.662 48.662 701.221 48.1655 700.779 47.7241C700.338 47.2827 699.841 46.8414 699.345 46.4C698.572 45.6827 697.745 45.0207 696.862 44.3586C696.421 44.0276 695.924 43.6414 695.428 43.3103C694.876 42.9241 694.324 42.5931 693.772 42.2069C693.331 41.931 692.834 41.6551 692.393 41.3793C691.786 41.0483 691.234 40.7172 690.628 40.3862C690.131 40.1103 689.634 39.8896 689.138 39.6689C688.531 39.3931 687.979 39.1172 687.372 38.8414C686.324 38.4 685.331 38.0138 684.228 37.6827C683.731 37.5172 683.179 37.4069 682.683 37.2414C681.965 37.0207 681.248 36.8551 680.531 36.6896C680.034 36.5793 679.483 36.4689 678.986 36.3586C678.159 36.1931 677.386 36.0827 676.559 35.9724C676.117 35.9724 675.676 35.862 675.234 35.8069C673.966 35.6965 672.697 35.5862 671.372 35.5862C669.717 35.5862 668.117 35.6965 666.517 35.862C666.021 35.9172 665.579 36.0276 665.083 36.0827C663.979 36.2483 662.876 36.4689 661.772 36.6896C661.221 36.8 660.669 36.9655 660.172 37.131C659.179 37.4069 658.186 37.7379 657.193 38.0689C656.641 38.2345 656.145 38.4551 655.593 38.6758C654.6 39.062 653.607 39.5586 652.669 40C652.228 40.2207 651.786 40.3862 651.345 40.662C650.076 41.3793 648.862 42.0965 647.648 42.9241C647.041 43.3103 646.49 43.8069 645.938 44.2483C645.276 44.7448 644.669 45.2414 644.062 45.7379C643.455 46.2345 642.903 46.7862 642.352 47.3379C641.8 47.8896 641.248 48.4414 640.697 48.9931C640.2 49.5448 639.648 50.0965 639.152 50.6483C638.434 51.4758 637.828 52.3586 637.166 53.1862C636.945 53.5172 636.614 53.8482 636.393 54.1793C635.621 55.2827 634.903 56.4414 634.297 57.6551C634.131 57.931 634.021 58.262 633.91 58.5379C633.359 59.6414 632.807 60.7448 632.366 61.9034C632.145 62.4 631.979 62.9517 631.759 63.5034C631.372 64.4965 631.041 65.5448 630.766 66.5931C630.6 67.0896 630.49 67.6414 630.379 68.1379C630.103 69.2414 629.883 70.4 629.717 71.5586C629.662 72 629.552 72.4414 629.497 72.9379C629.331 74.5379 629.221 76.1379 629.221 77.7931V79.3379H629.331C629.552 85.8482 631.262 92.2482 634.352 97.931C635.014 99.1448 635.731 100.303 636.448 101.407C644.338 113.048 657.414 120 671.428 120C689.303 120 705.248 108.69 711.207 91.8069L711.924 89.7655H694.545L694.103 90.5379C689.469 98.7034 680.807 103.779 671.428 103.779C657.579 103.779 646.269 92.9103 645.497 79.2827H713.634V77.7379V77.9586ZM650.076 63.062C650.572 62.3448 651.069 61.6827 651.621 61.0207C651.841 60.8 652.062 60.5241 652.283 60.3034C652.724 59.8069 653.166 59.3655 653.662 58.9241C653.938 58.7034 654.159 58.4276 654.434 58.2069C654.986 57.7655 655.538 57.3241 656.09 56.9379C656.31 56.7724 656.476 56.6069 656.697 56.4965C657.469 55.9448 658.297 55.4483 659.124 55.0069C659.29 54.9517 659.4 54.8414 659.566 54.7862C660.283 54.4 661 54.0689 661.772 53.7931C662.048 53.6827 662.324 53.5724 662.6 53.5172C663.262 53.2965 663.924 53.0758 664.586 52.9103C664.862 52.8551 665.193 52.7448 665.469 52.6896C666.186 52.5241 666.848 52.4138 667.566 52.3034C667.841 52.3034 668.117 52.1931 668.393 52.1931C669.386 52.0827 670.379 52.0276 671.372 52.0276C672.531 52.0276 673.634 52.0827 674.738 52.2483C675.014 52.2483 675.29 52.3586 675.565 52.4138C676.393 52.5793 677.221 52.6896 678.048 52.9103C678.324 52.9655 678.6 53.0758 678.876 53.1862C679.703 53.4069 680.476 53.6827 681.248 54.0138C681.469 54.1241 681.745 54.2345 681.966 54.3448C682.738 54.6758 683.51 55.062 684.228 55.5034C684.448 55.6138 684.669 55.7793 684.89 55.8896C685.607 56.331 686.324 56.8276 687.041 57.3241C687.262 57.4896 687.428 57.6551 687.648 57.8207C688.31 58.3724 688.972 58.9241 689.579 59.531C689.745 59.6965 689.965 59.9172 690.131 60.0827C690.738 60.6896 691.29 61.3517 691.841 62.0138C692.007 62.2345 692.172 62.4551 692.338 62.6758C692.503 62.8965 692.669 63.1724 692.834 63.3931H649.965C649.965 63.3931 650.076 63.2276 650.131 63.1724L650.076 63.062Z" fill="black"/>
<path d="M250.297 77.9586C250.297 101.241 269.221 120.166 292.503 120.166C315.786 120.166 334.71 101.241 334.71 77.9586C334.71 68.1379 331.29 59.0896 325.662 51.9172H334.71V35.7517H292.503C269.221 35.7517 250.297 54.6758 250.297 77.9586ZM318.545 77.9586C318.545 92.3034 306.848 104 292.503 104C278.159 104 266.462 92.3034 266.462 77.9586C266.462 63.6138 278.159 51.9172 292.503 51.9172C306.848 51.9172 318.545 63.6138 318.545 77.9586Z" fill="black"/>
<path d="M388.559 51.9172C397.883 51.9172 406.6 56.9931 411.234 65.1586L411.676 65.931H429.055L428.338 63.8896C422.379 47.0069 406.434 35.6965 388.559 35.6965C365.276 35.6965 346.352 54.6207 346.352 77.9034C346.352 101.186 365.276 120.11 388.559 120.11C406.434 120.11 422.379 108.8 428.338 91.9172L429.055 89.8759H411.676L411.234 90.6483C406.6 98.8138 397.938 103.89 388.559 103.89C374.214 103.89 362.517 92.1931 362.517 77.8483C362.517 63.5034 374.214 51.8069 388.559 51.8069V51.9172Z" fill="black"/>
<path d="M505.745 36.1931V82.1517C505.745 94.1242 495.152 103.89 482.131 103.89C469.11 103.89 458.517 94.1242 458.517 82.1517V36.1931H440.752V82.1517C440.752 103.172 459.234 120.166 482.076 120.166C504.917 120.166 523.4 103.117 523.4 82.1517V36.1931H505.634H505.745Z" fill="black"/>
</g>
<defs>
<clipPath id="clip0_451_647">
<rect width="713.269" height="200" fill="white" transform="translate(0.365479)"/>
</clipPath>
</defs>
</svg>
